<svg xmlns="http://www.w3.org/2000/svg" width="805" height="600"><rect width="805" height="600" x="0" y="0" fill="#FFFFFF" id="background"/><g id="viz"><g transform="translate(0,0)"><g transform="translate(10,20)"><g><path fill="#1f77b4" d="M0,560C0,560,6.268675940236991,560,9.403013910355487,560C12.537351880473981,560,15.722243688820196,560,18.806027820710973,560C21.88981195260175,560,24.82193456980938,560,27.905718701700156,560C30.989502833590933,560,34.22494848016486,560,37.30873261205564,560C40.39251674394642,560,43.32463936115404,560,46.40842349304482,560C49.4922076249356,560,52.67709943328182,560,55.81143740340031,560C58.945775373518806,560,62.18122102009274,560,65.2144513137558,560C68.24768160741885,560,70.9775888717156,565.2888888888889,74.01081916537866,560C77.04404945904173,554.7111111111111,80.33004894384338,543.4074074074074,83.41383307573416,528.2666666666667C86.49761720762494,513.1259259259259,89.42973982483255,472.7333333333333,92.51352395672333,469.1555555555555C95.59730808861411,465.5777777777777,98.83275373518804,492.4888888888889,101.91653786707882,506.8C105.0003219989696,521.1111111111111,107.93244461617722,546.1555555555556,111.016228748068,555.0222222222222C114.10001287995878,563.8888888888889,117.28490468830499,559.1703703703704,120.41924265842349,560C123.55358062854198,560.8296296296296,126.7384724368882,560,129.82225656877898,560C132.90604070066976,560,135.8381633178774,560,138.92194744976817,560C142.00573158165895,560,145.24117722823286,560,148.32496136012364,560C151.40874549201442,560,154.34086810922204,560,157.42465224111282,560C160.5084363730036,560,163.6933281813498,560,166.82766615146832,560C169.96200412158683,560,173.24800360638847,561.1925925925926,176.23068006182382,560C179.21335651725917,558.8074074074074,181.74104842864506,556.474074074074,184.72372488408038,552.8444444444444C187.7064013395157,549.2148148148149,191.04295466254507,538.688888888889,194.12673879443585,538.2222222222223C197.21052292632663,537.7555555555556,200.14264554353426,547.2962962962963,203.22642967542504,550.0444444444445C206.31021380731582,552.7925925925927,209.54565945388975,553.0518518518519,212.62944358578054,554.7111111111111C215.71322771767132,556.3703703703703,218.6453503348789,559.1185185185185,221.7291344667697,560C224.81291859866047,560.8814814814815,227.99781040700665,560,231.13214837712516,560C234.26648634724367,560,237.4513781555899,560,240.5351622874807,560C243.61894641937147,560,246.5510690365791,562.0740740740741,249.63485316846987,560C252.71863730036065,557.9259259259259,255.95408294693456,547.5555555555555,259.03786707882534,547.5555555555555C262.1216512107161,547.5555555555555,265.0537738279237,557.9259259259259,268.1375579598145,560C271.2213420917053,562.0740740740741,274.4062339000515,560,277.54057187017,560C280.67490984028854,560,283.96090932509014,560,286.9435857805255,560C289.92626223596085,560,292.45395414734674,560,295.4366306027821,560C298.41930705821744,560,301.7558603812468,560,304.83964451313756,560C307.9234286450283,560,310.85555126223596,560,313.9393353941267,560C317.02311952601747,560,320.2585651725914,560,323.3423493044822,560C326.426133436373,560,329.3582560535806,560,332.4420401854714,560C335.5258243173622,560,338.7107161257084,560,341.8450540958269,560C344.97939206594543,560,348.16428387429164,560,351.2480680061824,560C354.33185213807315,560,357.2639747552808,560,360.34775888717155,560C363.4315430190623,560,366.66698866563627,560,369.750772797527,560C372.8345569294178,560,375.7666795466255,560,378.85046367851623,560C381.934247810407,560,385.1191396187532,567.674074074074,388.2534775888717,560C391.3878155589902,552.325925925926,394.6738150437919,513.9555555555555,397.65649149922723,513.9555555555555C400.6391679546626,513.9555555555555,403.1668598660484,552.325925925926,406.14953632148377,560C409.1322127769191,567.674074074074,412.46876609994854,560,415.5525502318393,560C418.63633436373004,560,421.56845698093764,560,424.6522411128284,560C427.73602524471914,560,430.9714708912931,560,434.0552550231839,560C437.1390391550747,560,440.0711617722824,560,443.15494590417313,560C446.2387300360639,560,449.4236218444101,560.5185185185185,452.5579598145286,560C455.6922977846471,559.4814814814815,458.8771895929934,556.8888888888889,461.9609737248841,556.8888888888889C465.0447578567749,556.8888888888889,467.9768804739825,559.4814814814815,471.0606646058732,560C474.144448737764,560.5185185185185,477.37989438433794,560,480.46367851622875,560C483.54746264811956,560,486.4795852653272,560,489.56336939721797,560C492.6471535291087,560,495.8320453374549,562.9037037037037,498.9663833075734,560C502.1007212776919,557.0962962962963,505.33616692426585,542.5777777777778,508.3693972179289,542.5777777777778C511.40262751159196,542.5777777777778,514.1325347758888,557.0962962962963,517.1657650695519,560C520.198995363215,562.9037037037037,523.4849948480165,560,526.5687789799073,560C529.652563111798,560,532.5846857290057,560,535.6684698608965,560C538.7522539927872,560,541.9876996393612,560,545.0714837712519,560C548.1552679031427,560,551.0873905203504,560.0518518518519,554.1711746522411,560C557.2549587841319,559.9481481481481,560.4398505924781,559.6888888888889,563.5741885625966,559.6888888888889C566.7085265327152,559.6888888888889,569.8934183410613,559.9481481481481,572.9772024729521,560C576.0609866048428,560.0518518518519,578.9931092220505,560,582.0768933539413,560C585.160677485832,560,588.3961231324059,560,591.4799072642967,560C594.5636913961874,560,597.4958140133951,568.2962962962963,600.5795981452859,560C603.6633822771767,551.7037037037037,606.8482740855229,543.6148148148148,609.9826120556414,510.22222222222223C613.1169500257599,476.8296296296296,616.4029495105615,361.77037037037036,619.3856259659968,359.64444444444445C622.3683024214322,357.51851851851853,624.8959943328181,471.85185185185185,627.8786707882534,497.46666666666664C630.8613472436888,523.0814814814814,634.1979005667182,508.45925925925917,637.281684698609,513.3333333333333C640.3654688304997,518.2074074074073,643.2975914477074,520.7481481481482,646.3813755795982,526.7111111111111C649.4651597114889,532.674074074074,652.7006053580628,544.1333333333333,655.7843894899536,549.1111111111111C658.8681736218443,554.0888888888888,661.800296239052,558.5481481481481,664.8840803709428,556.5777777777778C667.9678645028335,554.6074074074074,671.1527563111798,536.7185185185185,674.2870942812983,537.2888888888889C677.4214322514168,537.8592592592593,680.6063240597631,560.3111111111111,683.6901081916538,560C686.7738923235446,559.6888888888889,689.7060149407522,535.4222222222222,692.789799072643,535.4222222222222C695.8735832045337,535.4222222222222,699.1090288511077,555.9037037037037,702.1928129829985,560C705.2765971148892,564.0962962962963,708.2087197320969,560,711.2925038639877,560C714.3762879958784,560,717.5611798042246,560,720.6955177743431,560C723.8298557444616,560,727.1158552292633,560,730.0985316846986,560C733.081208140134,560,735.6089000515199,566.1703703703704,738.5915765069552,560C741.5742529623906,553.8296296296296,744.9108062854199,523.3925925925926,747.9945904173106,522.9777777777778C751.0783745492014,522.562962962963,754.0104971664091,552.3777777777777,757.0942812982998,557.5111111111111C760.1780654301906,562.6444444444444,763.4135110767646,553.5703703703704,766.4972952086554,553.7777777777778C769.5810793405461,553.9851851851853,772.5132019577537,559.5333333333334,775.5969860896445,558.7555555555556C778.6807702215352,557.9777777777778,785,549.1111111111111,785,549.1111111111111L785,560C785,560,778.6807702215352,560,775.5969860896445,560C772.5132019577537,560,769.5810793405461,560,766.4972952086554,560C763.4135110767646,560,760.1780654301906,560,757.0942812982998,560C754.0104971664091,560,751.0783745492014,560,747.9945904173106,560C744.9108062854199,560,741.5742529623906,560,738.5915765069552,560C735.6089000515199,560,733.081208140134,560,730.0985316846986,560C727.1158552292633,560,723.8298557444616,560,720.6955177743431,560C717.5611798042246,560,714.3762879958784,560,711.2925038639877,560C708.2087197320969,560,705.2765971148892,560,702.1928129829985,560C699.1090288511077,560,695.8735832045337,560,692.789799072643,560C689.7060149407522,560,686.7738923235446,560,683.6901081916538,560C680.6063240597631,560,677.4214322514168,560,674.2870942812983,560C671.1527563111798,560,667.9678645028335,560,664.8840803709428,560C661.800296239052,560,658.8681736218443,560,655.7843894899536,560C652.7006053580628,560,649.4651597114889,560,646.3813755795982,560C643.2975914477074,560,640.3654688304997,560,637.281684698609,560C634.1979005667182,560,630.8613472436888,560,627.8786707882534,560C624.8959943328181,560,622.3683024214322,560,619.3856259659968,560C616.4029495105615,560,613.1169500257599,560,609.9826120556414,560C606.8482740855229,560,603.6633822771767,560,600.5795981452859,560C597.4958140133951,560,594.5636913961874,560,591.4799072642967,560C588.3961231324059,560,585.160677485832,560,582.0768933539413,560C578.9931092220505,560,576.0609866048428,560,572.9772024729521,560C569.8934183410613,560,566.7085265327152,560,563.5741885625966,560C560.4398505924781,560,557.2549587841319,560,554.1711746522411,560C551.0873905203504,560,548.1552679031427,560,545.0714837712519,560C541.9876996393612,560,538.7522539927872,560,535.6684698608965,560C532.5846857290057,560,529.652563111798,560,526.5687789799073,560C523.4849948480165,560,520.198995363215,560,517.1657650695519,560C514.1325347758888,560,511.40262751159196,560,508.3693972179289,560C505.33616692426585,560,502.1007212776919,560,498.9663833075734,560C495.8320453374549,560,492.6471535291087,560,489.56336939721797,560C486.4795852653272,560,483.54746264811956,560,480.46367851622875,560C477.37989438433794,560,474.144448737764,560,471.0606646058732,560C467.9768804739825,560,465.0447578567749,560,461.9609737248841,560C458.8771895929934,560,455.6922977846471,560,452.5579598145286,560C449.4236218444101,560,446.2387300360639,560,443.15494590417313,560C440.0711617722824,560,437.1390391550747,560,434.0552550231839,560C430.9714708912931,560,427.73602524471914,560,424.6522411128284,560C421.56845698093764,560,418.63633436373004,560,415.5525502318393,560C412.46876609994854,560,409.1322127769191,560,406.14953632148377,560C403.1668598660484,560,400.6391679546626,560,397.65649149922723,560C394.6738150437919,560,391.3878155589902,560,388.2534775888717,560C385.1191396187532,560,381.934247810407,560,378.85046367851623,560C375.7666795466255,560,372.8345569294178,560,369.750772797527,560C366.66698866563627,560,363.4315430190623,560,360.34775888717155,560C357.2639747552808,560,354.33185213807315,560,351.2480680061824,560C348.16428387429164,560,344.97939206594543,560,341.8450540958269,560C338.7107161257084,560,335.5258243173622,560,332.4420401854714,560C329.3582560535806,560,326.426133436373,560,323.3423493044822,560C320.2585651725914,560,317.02311952601747,560,313.9393353941267,560C310.85555126223596,560,307.9234286450283,560,304.83964451313756,560C301.7558603812468,560,298.41930705821744,560,295.4366306027821,560C292.45395414734674,560,289.92626223596085,560,286.9435857805255,560C283.96090932509014,560,280.67490984028854,560,277.54057187017,560C274.4062339000515,560,271.2213420917053,560,268.1375579598145,560C265.0537738279237,560,262.1216512107161,560,259.03786707882534,560C255.95408294693456,560,252.71863730036065,560,249.63485316846987,560C246.5510690365791,560,243.61894641937147,560,240.5351622874807,560C237.4513781555899,560,234.26648634724367,560,231.13214837712516,560C227.99781040700665,560,224.81291859866047,560,221.7291344667697,560C218.6453503348789,560,215.71322771767132,560,212.62944358578054,560C209.54565945388975,560,206.31021380731582,560,203.22642967542504,560C200.14264554353426,560,197.21052292632663,560,194.12673879443585,560C191.04295466254507,560,187.7064013395157,560,184.72372488408038,560C181.74104842864506,560,179.21335651725917,560,176.23068006182382,560C173.24800360638847,560,169.96200412158683,560,166.82766615146832,560C163.6933281813498,560,160.5084363730036,560,157.42465224111282,560C154.34086810922204,560,151.40874549201442,560,148.32496136012364,560C145.24117722823286,560,142.00573158165895,560,138.92194744976817,560C135.8381633178774,560,132.90604070066976,560,129.82225656877898,560C126.7384724368882,560,123.55358062854198,560,120.41924265842349,560C117.28490468830499,560,114.10001287995878,560,111.016228748068,560C107.93244461617722,560,105.0003219989696,560,101.91653786707882,560C98.83275373518804,560,95.59730808861411,560,92.51352395672333,560C89.42973982483255,560,86.49761720762494,560,83.41383307573416,560C80.33004894384338,560,77.04404945904173,560,74.01081916537866,560C70.9775888717156,560,68.24768160741885,560,65.2144513137558,560C62.18122102009274,560,58.945775373518806,560,55.81143740340031,560C52.67709943328182,560,49.4922076249356,560,46.40842349304482,560C43.32463936115404,560,40.39251674394642,560,37.30873261205564,560C34.22494848016486,560,30.989502833590933,560,27.905718701700156,560C24.82193456980938,560,21.88981195260175,560,18.806027820710973,560C15.722243688820196,560,12.537351880473981,560,9.403013910355487,560C6.268675940236991,560,0,560,0,560Z"><title>App de Windows</title></path><path fill="#ff7f0e" d="M0,560C0,560,6.268675940236991,560,9.403013910355487,560C12.537351880473981,560,15.722243688820196,560,18.806027820710973,560C21.88981195260175,560,24.82193456980938,560,27.905718701700156,560C30.989502833590933,560,34.22494848016486,560,37.30873261205564,560C40.39251674394642,560,43.32463936115404,560,46.40842349304482,560C49.4922076249356,560,52.67709943328182,560,55.81143740340031,560C58.945775373518806,560,62.18122102009274,560,65.2144513137558,560C68.24768160741885,560,70.9775888717156,565.2888888888889,74.01081916537866,560C77.04404945904173,554.7111111111111,80.33004894384338,543.4074074074074,83.41383307573416,528.2666666666667C86.49761720762494,513.1259259259259,89.42973982483255,472.7333333333333,92.51352395672333,469.1555555555555C95.59730808861411,465.5777777777777,98.83275373518804,492.4888888888889,101.91653786707882,506.8C105.0003219989696,521.1111111111111,107.93244461617722,546.362962962963,111.016228748068,555.0222222222222C114.10001287995878,563.6814814814815,117.28490468830499,558.4444444444445,120.41924265842349,558.7555555555556C123.55358062854198,559.0666666666667,126.7384724368882,556.7333333333333,129.82225656877898,556.8888888888889C132.90604070066976,557.0444444444445,135.8381633178774,559.325925925926,138.92194744976817,559.6888888888889C142.00573158165895,560.0518518518518,145.24117722823286,559.0148148148147,148.32496136012364,559.0666666666666C151.40874549201442,559.1185185185185,154.34086810922204,559.8444444444444,157.42465224111282,560C160.5084363730036,560.1555555555556,163.6933281813498,564.4592592592593,166.82766615146832,560C169.96200412158683,555.5407407407407,173.24800360638847,534.437037037037,176.23068006182382,533.2444444444444C179.21335651725917,532.0518518518518,181.74104842864506,552.0148148148148,184.72372488408038,552.8444444444444C187.7064013395157,553.674074074074,191.04295466254507,538.688888888889,194.12673879443585,538.2222222222223C197.21052292632663,537.7555555555556,200.14264554353426,547.2962962962963,203.22642967542504,550.0444444444445C206.31021380731582,552.7925925925927,209.54565945388975,553.0518518518519,212.62944358578054,554.7111111111111C215.71322771767132,556.3703703703703,218.6453503348789,559.1185185185185,221.7291344667697,560C224.81291859866047,560.8814814814815,227.99781040700665,560,231.13214837712516,560C234.26648634724367,560,237.4513781555899,560,240.5351622874807,560C243.61894641937147,560,246.5510690365791,562.0740740740741,249.63485316846987,560C252.71863730036065,557.9259259259259,255.95408294693456,547.5555555555555,259.03786707882534,547.5555555555555C262.1216512107161,547.5555555555555,265.0537738279237,557.9259259259259,268.1375579598145,560C271.2213420917053,562.0740740740741,274.4062339000515,560,277.54057187017,560C280.67490984028854,560,283.96090932509014,560,286.9435857805255,560C289.92626223596085,560,292.45395414734674,560,295.4366306027821,560C298.41930705821744,560,301.7558603812468,560,304.83964451313756,560C307.9234286450283,560,310.85555126223596,560,313.9393353941267,560C317.02311952601747,560,320.2585651725914,560,323.3423493044822,560C326.426133436373,560,329.3582560535806,560,332.4420401854714,560C335.5258243173622,560,338.7107161257084,560,341.8450540958269,560C344.97939206594543,560,348.16428387429164,560,351.2480680061824,560C354.33185213807315,560,357.2639747552808,560,360.34775888717155,560C363.4315430190623,560,366.66698866563627,560,369.750772797527,560C372.8345569294178,560,375.7666795466255,560,378.85046367851623,560C381.934247810407,560,385.1191396187532,567.674074074074,388.2534775888717,560C391.3878155589902,552.325925925926,394.6738150437919,513.9555555555555,397.65649149922723,513.9555555555555C400.6391679546626,513.9555555555555,403.1668598660484,552.325925925926,406.14953632148377,560C409.1322127769191,567.674074074074,412.46876609994854,560,415.5525502318393,560C418.63633436373004,560,421.56845698093764,560,424.6522411128284,560C427.73602524471914,560,430.9714708912931,560,434.0552550231839,560C437.1390391550747,560,440.0711617722824,560,443.15494590417313,560C446.2387300360639,560,449.4236218444101,560.5185185185185,452.5579598145286,560C455.6922977846471,559.4814814814815,458.8771895929934,556.8888888888889,461.9609737248841,556.8888888888889C465.0447578567749,556.8888888888889,467.9768804739825,559.4814814814815,471.0606646058732,560C474.144448737764,560.5185185185185,477.37989438433794,560,480.46367851622875,560C483.54746264811956,560,486.4795852653272,560,489.56336939721797,560C492.6471535291087,560,495.8320453374549,562.9037037037037,498.9663833075734,560C502.1007212776919,557.0962962962963,505.33616692426585,542.5777777777778,508.3693972179289,542.5777777777778C511.40262751159196,542.5777777777778,514.1325347758888,557.0962962962963,517.1657650695519,560C520.198995363215,562.9037037037037,523.4849948480165,560,526.5687789799073,560C529.652563111798,560,532.5846857290057,560,535.6684698608965,560C538.7522539927872,560,541.9876996393612,560,545.0714837712519,560C548.1552679031427,560,551.0873905203504,560.0518518518519,554.1711746522411,560C557.2549587841319,559.9481481481481,560.4398505924781,559.6888888888889,563.5741885625966,559.6888888888889C566.7085265327152,559.6888888888889,569.8934183410613,559.9481481481481,572.9772024729521,560C576.0609866048428,560.0518518518519,578.9931092220505,560,582.0768933539413,560C585.160677485832,560,588.3961231324059,560,591.4799072642967,560C594.5636913961874,560,597.4958140133951,568.2962962962963,600.5795981452859,560C603.6633822771767,551.7037037037037,606.8482740855229,543.6148148148148,609.9826120556414,510.22222222222223C613.1169500257599,476.8296296296296,616.4029495105615,361.77037037037036,619.3856259659968,359.64444444444445C622.3683024214322,357.51851851851853,624.8959943328181,471.85185185185185,627.8786707882534,497.46666666666664C630.8613472436888,523.0814814814814,634.1979005667182,508.45925925925917,637.281684698609,513.3333333333333C640.3654688304997,518.2074074074073,643.2975914477074,520.7481481481482,646.3813755795982,526.7111111111111C649.4651597114889,532.674074074074,652.7006053580628,544.1333333333333,655.7843894899536,549.1111111111111C658.8681736218443,554.0888888888888,661.800296239052,558.5481481481481,664.8840803709428,556.5777777777778C667.9678645028335,554.6074074074074,671.1527563111798,536.7185185185185,674.2870942812983,537.2888888888889C677.4214322514168,537.8592592592593,680.6063240597631,560.3111111111111,683.6901081916538,560C686.7738923235446,559.6888888888889,689.7060149407522,535.4222222222222,692.789799072643,535.4222222222222C695.8735832045337,535.4222222222222,699.1090288511077,555.9037037037037,702.1928129829985,560C705.2765971148892,564.0962962962963,708.2087197320969,560,711.2925038639877,560C714.3762879958784,560,717.5611798042246,560,720.6955177743431,560C723.8298557444616,560,727.1158552292633,560,730.0985316846986,560C733.081208140134,560,735.6089000515199,566.1703703703704,738.5915765069552,560C741.5742529623906,553.8296296296296,744.9108062854199,523.3925925925926,747.9945904173106,522.9777777777778C751.0783745492014,522.562962962963,754.0104971664091,552.3777777777777,757.0942812982998,557.5111111111111C760.1780654301906,562.6444444444444,763.4135110767646,553.5703703703704,766.4972952086554,553.7777777777778C769.5810793405461,553.9851851851853,772.5132019577537,559.5333333333334,775.5969860896445,558.7555555555556C778.6807702215352,557.9777777777778,785,549.1111111111111,785,549.1111111111111L785,549.1111111111111C785,549.1111111111111,778.6807702215352,557.9777777777778,775.5969860896445,558.7555555555556C772.5132019577537,559.5333333333334,769.5810793405461,553.9851851851853,766.4972952086554,553.7777777777778C763.4135110767646,553.5703703703704,760.1780654301906,562.6444444444444,757.0942812982998,557.5111111111111C754.0104971664091,552.3777777777777,751.0783745492014,522.562962962963,747.9945904173106,522.9777777777778C744.9108062854199,523.3925925925926,741.5742529623906,553.8296296296296,738.5915765069552,560C735.6089000515199,566.1703703703704,733.081208140134,560,730.0985316846986,560C727.1158552292633,560,723.8298557444616,560,720.6955177743431,560C717.5611798042246,560,714.3762879958784,560,711.2925038639877,560C708.2087197320969,560,705.2765971148892,564.0962962962963,702.1928129829985,560C699.1090288511077,555.9037037037037,695.8735832045337,535.4222222222222,692.789799072643,535.4222222222222C689.7060149407522,535.4222222222222,686.7738923235446,559.6888888888889,683.6901081916538,560C680.6063240597631,560.3111111111111,677.4214322514168,537.8592592592593,674.2870942812983,537.2888888888889C671.1527563111798,536.7185185185185,667.9678645028335,554.6074074074074,664.8840803709428,556.5777777777778C661.800296239052,558.5481481481481,658.8681736218443,554.0888888888888,655.7843894899536,549.1111111111111C652.7006053580628,544.1333333333333,649.4651597114889,532.674074074074,646.3813755795982,526.7111111111111C643.2975914477074,520.7481481481482,640.3654688304997,518.2074074074073,637.281684698609,513.3333333333333C634.1979005667182,508.45925925925917,630.8613472436888,523.0814814814814,627.8786707882534,497.46666666666664C624.8959943328181,471.85185185185185,622.3683024214322,357.51851851851853,619.3856259659968,359.64444444444445C616.4029495105615,361.77037037037036,613.1169500257599,476.8296296296296,609.9826120556414,510.22222222222223C606.8482740855229,543.6148148148148,603.6633822771767,551.7037037037037,600.5795981452859,560C597.4958140133951,568.2962962962963,594.5636913961874,560,591.4799072642967,560C588.3961231324059,560,585.160677485832,560,582.0768933539413,560C578.9931092220505,560,576.0609866048428,560.0518518518519,572.9772024729521,560C569.8934183410613,559.9481481481481,566.7085265327152,559.6888888888889,563.5741885625966,559.6888888888889C560.4398505924781,559.6888888888889,557.2549587841319,559.9481481481481,554.1711746522411,560C551.0873905203504,560.0518518518519,548.1552679031427,560,545.0714837712519,560C541.9876996393612,560,538.7522539927872,560,535.6684698608965,560C532.5846857290057,560,529.652563111798,560,526.5687789799073,560C523.4849948480165,560,520.198995363215,562.9037037037037,517.1657650695519,560C514.1325347758888,557.0962962962963,511.40262751159196,542.5777777777778,508.3693972179289,542.5777777777778C505.33616692426585,542.5777777777778,502.1007212776919,557.0962962962963,498.9663833075734,560C495.8320453374549,562.9037037037037,492.6471535291087,560,489.56336939721797,560C486.4795852653272,560,483.54746264811956,560,480.46367851622875,560C477.37989438433794,560,474.144448737764,560.5185185185185,471.0606646058732,560C467.9768804739825,559.4814814814815,465.0447578567749,556.8888888888889,461.9609737248841,556.8888888888889C458.8771895929934,556.8888888888889,455.6922977846471,559.4814814814815,452.5579598145286,560C449.4236218444101,560.5185185185185,446.2387300360639,560,443.15494590417313,560C440.0711617722824,560,437.1390391550747,560,434.0552550231839,560C430.9714708912931,560,427.73602524471914,560,424.6522411128284,560C421.56845698093764,560,418.63633436373004,560,415.5525502318393,560C412.46876609994854,560,409.1322127769191,567.674074074074,406.14953632148377,560C403.1668598660484,552.325925925926,400.6391679546626,513.9555555555555,397.65649149922723,513.9555555555555C394.6738150437919,513.9555555555555,391.3878155589902,552.325925925926,388.2534775888717,560C385.1191396187532,567.674074074074,381.934247810407,560,378.85046367851623,560C375.7666795466255,560,372.8345569294178,560,369.750772797527,560C366.66698866563627,560,363.4315430190623,560,360.34775888717155,560C357.2639747552808,560,354.33185213807315,560,351.2480680061824,560C348.16428387429164,560,344.97939206594543,560,341.8450540958269,560C338.7107161257084,560,335.5258243173622,560,332.4420401854714,560C329.3582560535806,560,326.426133436373,560,323.3423493044822,560C320.2585651725914,560,317.02311952601747,560,313.9393353941267,560C310.85555126223596,560,307.9234286450283,560,304.83964451313756,560C301.7558603812468,560,298.41930705821744,560,295.4366306027821,560C292.45395414734674,560,289.92626223596085,560,286.9435857805255,560C283.96090932509014,560,280.67490984028854,560,277.54057187017,560C274.4062339000515,560,271.2213420917053,562.0740740740741,268.1375579598145,560C265.0537738279237,557.9259259259259,262.1216512107161,547.5555555555555,259.03786707882534,547.5555555555555C255.95408294693456,547.5555555555555,252.71863730036065,557.9259259259259,249.63485316846987,560C246.5510690365791,562.0740740740741,243.61894641937147,560,240.5351622874807,560C237.4513781555899,560,234.26648634724367,560,231.13214837712516,560C227.99781040700665,560,224.81291859866047,560.8814814814815,221.7291344667697,560C218.6453503348789,559.1185185185185,215.71322771767132,556.3703703703703,212.62944358578054,554.7111111111111C209.54565945388975,553.0518518518519,206.31021380731582,552.7925925925927,203.22642967542504,550.0444444444445C200.14264554353426,547.2962962962963,197.21052292632663,537.7555555555556,194.12673879443585,538.2222222222223C191.04295466254507,538.688888888889,187.7064013395157,549.2148148148149,184.72372488408038,552.8444444444444C181.74104842864506,556.474074074074,179.21335651725917,558.8074074074074,176.23068006182382,560C173.24800360638847,561.1925925925926,169.96200412158683,560,166.82766615146832,560C163.6933281813498,560,160.5084363730036,560,157.42465224111282,560C154.34086810922204,560,151.40874549201442,560,148.32496136012364,560C145.24117722823286,560,142.00573158165895,560,138.92194744976817,560C135.8381633178774,560,132.90604070066976,560,129.82225656877898,560C126.7384724368882,560,123.55358062854198,560.8296296296296,120.41924265842349,560C117.28490468830499,559.1703703703704,114.10001287995878,563.8888888888889,111.016228748068,555.0222222222222C107.93244461617722,546.1555555555556,105.0003219989696,521.1111111111111,101.91653786707882,506.8C98.83275373518804,492.4888888888889,95.59730808861411,465.5777777777777,92.51352395672333,469.1555555555555C89.42973982483255,472.7333333333333,86.49761720762494,513.1259259259259,83.41383307573416,528.2666666666667C80.33004894384338,543.4074074074074,77.04404945904173,554.7111111111111,74.01081916537866,560C70.9775888717156,565.2888888888889,68.24768160741885,560,65.2144513137558,560C62.18122102009274,560,58.945775373518806,560,55.81143740340031,560C52.67709943328182,560,49.4922076249356,560,46.40842349304482,560C43.32463936115404,560,40.39251674394642,560,37.30873261205564,560C34.22494848016486,560,30.989502833590933,560,27.905718701700156,560C24.82193456980938,560,21.88981195260175,560,18.806027820710973,560C15.722243688820196,560,12.537351880473981,560,9.403013910355487,560C6.268675940236991,560,0,560,0,560Z"><title>Navegador (Chrome)</title></path><path fill="#2ca02c" d="M0,560C0,560,6.268675940236991,560,9.403013910355487,560C12.537351880473981,560,15.722243688820196,560,18.806027820710973,560C21.88981195260175,560,24.82193456980938,560,27.905718701700156,560C30.989502833590933,560,34.22494848016486,560,37.30873261205564,560C40.39251674394642,560,43.32463936115404,560,46.40842349304482,560C49.4922076249356,560,52.67709943328182,560,55.81143740340031,560C58.945775373518806,560,62.18122102009274,560.4666666666667,65.2144513137558,560C68.24768160741885,559.5333333333333,70.9775888717156,563.4222222222222,74.01081916537866,557.2C77.04404945904173,550.9777777777779,80.33004894384338,540.0888888888888,83.41383307573416,522.6666666666666C86.49761720762494,505.2444444444444,89.42973982483255,455.31111111111113,92.51352395672333,452.6666666666667C95.59730808861411,450.02222222222224,98.83275373518804,489.74074074074076,101.91653786707882,506.8C105.0003219989696,523.8592592592593,107.93244461617722,570.0592592592593,111.016228748068,555.0222222222222C114.10001287995878,539.9851851851852,117.28490468830499,418.28888888888883,120.41924265842349,416.5777777777777C123.55358062854198,414.8666666666666,126.7384724368882,522.1481481481482,129.82225656877898,544.7555555555556C132.90604070066976,567.362962962963,135.8381633178774,549.8370370370371,138.92194744976817,552.2222222222223C142.00573158165895,554.6074074074074,145.24117722823286,557.7703703703703,148.32496136012364,559.0666666666666C151.40874549201442,560.3629629629629,154.34086810922204,559.8444444444444,157.42465224111282,560C160.5084363730036,560.1555555555556,163.6933281813498,564.4592592592593,166.82766615146832,560C169.96200412158683,555.5407407407407,173.24800360638847,534.437037037037,176.23068006182382,533.2444444444444C179.21335651725917,532.0518518518518,181.74104842864506,557.0962962962963,184.72372488408038,552.8444444444444C187.7064013395157,548.5925925925926,191.04295466254507,508.19999999999993,194.12673879443585,507.7333333333333C197.21052292632663,507.26666666666665,200.14264554353426,542.2148148148149,203.22642967542504,550.0444444444445C206.31021380731582,557.8740740740741,209.54565945388975,553.0518518518519,212.62944358578054,554.7111111111111C215.71322771767132,556.3703703703703,218.6453503348789,559.1185185185185,221.7291344667697,560C224.81291859866047,560.8814814814815,227.99781040700665,560,231.13214837712516,560C234.26648634724367,560,237.4513781555899,560,240.5351622874807,560C243.61894641937147,560,246.5510690365791,562.0740740740741,249.63485316846987,560C252.71863730036065,557.9259259259259,255.95408294693456,547.5555555555555,259.03786707882534,547.5555555555555C262.1216512107161,547.5555555555555,265.0537738279237,557.9259259259259,268.1375579598145,560C271.2213420917053,562.0740740740741,274.4062339000515,560,277.54057187017,560C280.67490984028854,560,283.96090932509014,560,286.9435857805255,560C289.92626223596085,560,292.45395414734674,560,295.4366306027821,560C298.41930705821744,560,301.7558603812468,560,304.83964451313756,560C307.9234286450283,560,310.85555126223596,560,313.9393353941267,560C317.02311952601747,560,320.2585651725914,560,323.3423493044822,560C326.426133436373,560,329.3582560535806,560,332.4420401854714,560C335.5258243173622,560,338.7107161257084,560,341.8450540958269,560C344.97939206594543,560,348.16428387429164,560,351.2480680061824,560C354.33185213807315,560,357.2639747552808,560,360.34775888717155,560C363.4315430190623,560,366.66698866563627,560,369.750772797527,560C372.8345569294178,560,375.7666795466255,560,378.85046367851623,560C381.934247810407,560,385.1191396187532,567.674074074074,388.2534775888717,560C391.3878155589902,552.325925925926,394.6738150437919,513.9555555555555,397.65649149922723,513.9555555555555C400.6391679546626,513.9555555555555,403.1668598660484,552.325925925926,406.14953632148377,560C409.1322127769191,567.674074074074,412.46876609994854,560,415.5525502318393,560C418.63633436373004,560,421.56845698093764,560,424.6522411128284,560C427.73602524471914,560,430.9714708912931,560,434.0552550231839,560C437.1390391550747,560,440.0711617722824,560.2074074074073,443.15494590417313,560C446.2387300360639,559.7925925925927,449.4236218444101,559.2740740740741,452.5579598145286,558.7555555555556C455.6922977846471,558.2370370370371,458.8771895929934,556.6814814814816,461.9609737248841,556.8888888888889C465.0447578567749,557.0962962962963,467.9768804739825,559.4814814814815,471.0606646058732,560C474.144448737764,560.5185185185185,477.37989438433794,560,480.46367851622875,560C483.54746264811956,560,486.4795852653272,560,489.56336939721797,560C492.6471535291087,560,495.8320453374549,562.9037037037037,498.9663833075734,560C502.1007212776919,557.0962962962963,505.33616692426585,542.6296296296297,508.3693972179289,542.5777777777778C511.40262751159196,542.5259259259259,514.1325347758888,556.7851851851851,517.1657650695519,559.6888888888889C520.198995363215,562.5925925925926,523.4849948480165,559.9481481481481,526.5687789799073,560C529.652563111798,560.0518518518519,532.5846857290057,560,535.6684698608965,560C538.7522539927872,560,541.9876996393612,560,545.0714837712519,560C548.1552679031427,560,551.0873905203504,560.0518518518519,554.1711746522411,560C557.2549587841319,559.9481481481481,560.4398505924781,559.7407407407408,563.5741885625966,559.6888888888889C566.7085265327152,559.637037037037,569.8934183410613,559.637037037037,572.9772024729521,559.6888888888889C576.0609866048428,559.7407407407408,578.9931092220505,559.9481481481481,582.0768933539413,560C585.160677485832,560.0518518518519,588.3961231324059,560,591.4799072642967,560C594.5636913961874,560,597.4958140133951,568.2962962962963,600.5795981452859,560C603.6633822771767,551.7037037037037,606.8482740855229,543.6148148148148,609.9826120556414,510.22222222222223C613.1169500257599,476.8296296296296,616.4029495105615,361.77037037037036,619.3856259659968,359.64444444444445C622.3683024214322,357.51851851851853,624.8959943328181,471.85185185185185,627.8786707882534,497.46666666666664C630.8613472436888,523.0814814814814,634.1979005667182,508.45925925925917,637.281684698609,513.3333333333333C640.3654688304997,518.2074074074073,643.2975914477074,520.7481481481482,646.3813755795982,526.7111111111111C649.4651597114889,532.674074074074,652.7006053580628,544.1333333333333,655.7843894899536,549.1111111111111C658.8681736218443,554.0888888888888,661.800296239052,558.5481481481481,664.8840803709428,556.5777777777778C667.9678645028335,554.6074074074074,671.1527563111798,536.7185185185185,674.2870942812983,537.2888888888889C677.4214322514168,537.8592592592593,680.6063240597631,560.3111111111111,683.6901081916538,560C686.7738923235446,559.6888888888889,689.7060149407522,535.4222222222222,692.789799072643,535.4222222222222C695.8735832045337,535.4222222222222,699.1090288511077,555.9037037037037,702.1928129829985,560C705.2765971148892,564.0962962962963,708.2087197320969,560,711.2925038639877,560C714.3762879958784,560,717.5611798042246,560,720.6955177743431,560C723.8298557444616,560,727.1158552292633,560,730.0985316846986,560C733.081208140134,560,735.6089000515199,566.1703703703704,738.5915765069552,560C741.5742529623906,553.8296296296296,744.9108062854199,523.3925925925926,747.9945904173106,522.9777777777778C751.0783745492014,522.562962962963,754.0104971664091,552.3777777777777,757.0942812982998,557.5111111111111C760.1780654301906,562.6444444444444,763.4135110767646,553.5703703703704,766.4972952086554,553.7777777777778C769.5810793405461,553.9851851851853,772.5132019577537,559.5333333333334,775.5969860896445,558.7555555555556C778.6807702215352,557.9777777777778,785,549.1111111111111,785,549.1111111111111L785,549.1111111111111C785,549.1111111111111,778.6807702215352,557.9777777777778,775.5969860896445,558.7555555555556C772.5132019577537,559.5333333333334,769.5810793405461,553.9851851851853,766.4972952086554,553.7777777777778C763.4135110767646,553.5703703703704,760.1780654301906,562.6444444444444,757.0942812982998,557.5111111111111C754.0104971664091,552.3777777777777,751.0783745492014,522.562962962963,747.9945904173106,522.9777777777778C744.9108062854199,523.3925925925926,741.5742529623906,553.8296296296296,738.5915765069552,560C735.6089000515199,566.1703703703704,733.081208140134,560,730.0985316846986,560C727.1158552292633,560,723.8298557444616,560,720.6955177743431,560C717.5611798042246,560,714.3762879958784,560,711.2925038639877,560C708.2087197320969,560,705.2765971148892,564.0962962962963,702.1928129829985,560C699.1090288511077,555.9037037037037,695.8735832045337,535.4222222222222,692.789799072643,535.4222222222222C689.7060149407522,535.4222222222222,686.7738923235446,559.6888888888889,683.6901081916538,560C680.6063240597631,560.3111111111111,677.4214322514168,537.8592592592593,674.2870942812983,537.2888888888889C671.1527563111798,536.7185185185185,667.9678645028335,554.6074074074074,664.8840803709428,556.5777777777778C661.800296239052,558.5481481481481,658.8681736218443,554.0888888888888,655.7843894899536,549.1111111111111C652.7006053580628,544.1333333333333,649.4651597114889,532.674074074074,646.3813755795982,526.7111111111111C643.2975914477074,520.7481481481482,640.3654688304997,518.2074074074073,637.281684698609,513.3333333333333C634.1979005667182,508.45925925925917,630.8613472436888,523.0814814814814,627.8786707882534,497.46666666666664C624.8959943328181,471.85185185185185,622.3683024214322,357.51851851851853,619.3856259659968,359.64444444444445C616.4029495105615,361.77037037037036,613.1169500257599,476.8296296296296,609.9826120556414,510.22222222222223C606.8482740855229,543.6148148148148,603.6633822771767,551.7037037037037,600.5795981452859,560C597.4958140133951,568.2962962962963,594.5636913961874,560,591.4799072642967,560C588.3961231324059,560,585.160677485832,560,582.0768933539413,560C578.9931092220505,560,576.0609866048428,560.0518518518519,572.9772024729521,560C569.8934183410613,559.9481481481481,566.7085265327152,559.6888888888889,563.5741885625966,559.6888888888889C560.4398505924781,559.6888888888889,557.2549587841319,559.9481481481481,554.1711746522411,560C551.0873905203504,560.0518518518519,548.1552679031427,560,545.0714837712519,560C541.9876996393612,560,538.7522539927872,560,535.6684698608965,560C532.5846857290057,560,529.652563111798,560,526.5687789799073,560C523.4849948480165,560,520.198995363215,562.9037037037037,517.1657650695519,560C514.1325347758888,557.0962962962963,511.40262751159196,542.5777777777778,508.3693972179289,542.5777777777778C505.33616692426585,542.5777777777778,502.1007212776919,557.0962962962963,498.9663833075734,560C495.8320453374549,562.9037037037037,492.6471535291087,560,489.56336939721797,560C486.4795852653272,560,483.54746264811956,560,480.46367851622875,560C477.37989438433794,560,474.144448737764,560.5185185185185,471.0606646058732,560C467.9768804739825,559.4814814814815,465.0447578567749,556.8888888888889,461.9609737248841,556.8888888888889C458.8771895929934,556.8888888888889,455.6922977846471,559.4814814814815,452.5579598145286,560C449.4236218444101,560.5185185185185,446.2387300360639,560,443.15494590417313,560C440.0711617722824,560,437.1390391550747,560,434.0552550231839,560C430.9714708912931,560,427.73602524471914,560,424.6522411128284,560C421.56845698093764,560,418.63633436373004,560,415.5525502318393,560C412.46876609994854,560,409.1322127769191,567.674074074074,406.14953632148377,560C403.1668598660484,552.325925925926,400.6391679546626,513.9555555555555,397.65649149922723,513.9555555555555C394.6738150437919,513.9555555555555,391.3878155589902,552.325925925926,388.2534775888717,560C385.1191396187532,567.674074074074,381.934247810407,560,378.85046367851623,560C375.7666795466255,560,372.8345569294178,560,369.750772797527,560C366.66698866563627,560,363.4315430190623,560,360.34775888717155,560C357.2639747552808,560,354.33185213807315,560,351.2480680061824,560C348.16428387429164,560,344.97939206594543,560,341.8450540958269,560C338.7107161257084,560,335.5258243173622,560,332.4420401854714,560C329.3582560535806,560,326.426133436373,560,323.3423493044822,560C320.2585651725914,560,317.02311952601747,560,313.9393353941267,560C310.85555126223596,560,307.9234286450283,560,304.83964451313756,560C301.7558603812468,560,298.41930705821744,560,295.4366306027821,560C292.45395414734674,560,289.92626223596085,560,286.9435857805255,560C283.96090932509014,560,280.67490984028854,560,277.54057187017,560C274.4062339000515,560,271.2213420917053,562.0740740740741,268.1375579598145,560C265.0537738279237,557.9259259259259,262.1216512107161,547.5555555555555,259.03786707882534,547.5555555555555C255.95408294693456,547.5555555555555,252.71863730036065,557.9259259259259,249.63485316846987,560C246.5510690365791,562.0740740740741,243.61894641937147,560,240.5351622874807,560C237.4513781555899,560,234.26648634724367,560,231.13214837712516,560C227.99781040700665,560,224.81291859866047,560.8814814814815,221.7291344667697,560C218.6453503348789,559.1185185185185,215.71322771767132,556.3703703703703,212.62944358578054,554.7111111111111C209.54565945388975,553.0518518518519,206.31021380731582,552.7925925925927,203.22642967542504,550.0444444444445C200.14264554353426,547.2962962962963,197.21052292632663,537.7555555555556,194.12673879443585,538.2222222222223C191.04295466254507,538.688888888889,187.7064013395157,553.674074074074,184.72372488408038,552.8444444444444C181.74104842864506,552.0148148148148,179.21335651725917,532.0518518518518,176.23068006182382,533.2444444444444C173.24800360638847,534.437037037037,169.96200412158683,555.5407407407407,166.82766615146832,560C163.6933281813498,564.4592592592593,160.5084363730036,560.1555555555556,157.42465224111282,560C154.34086810922204,559.8444444444444,151.40874549201442,559.1185185185185,148.32496136012364,559.0666666666666C145.24117722823286,559.0148148148147,142.00573158165895,560.0518518518518,138.92194744976817,559.6888888888889C135.8381633178774,559.325925925926,132.90604070066976,557.0444444444445,129.82225656877898,556.8888888888889C126.7384724368882,556.7333333333333,123.55358062854198,559.0666666666667,120.41924265842349,558.7555555555556C117.28490468830499,558.4444444444445,114.10001287995878,563.6814814814815,111.016228748068,555.0222222222222C107.93244461617722,546.362962962963,105.0003219989696,521.1111111111111,101.91653786707882,506.8C98.83275373518804,492.4888888888889,95.59730808861411,465.5777777777777,92.51352395672333,469.1555555555555C89.42973982483255,472.7333333333333,86.49761720762494,513.1259259259259,83.41383307573416,528.2666666666667C80.33004894384338,543.4074074074074,77.04404945904173,554.7111111111111,74.01081916537866,560C70.9775888717156,565.2888888888889,68.24768160741885,560,65.2144513137558,560C62.18122102009274,560,58.945775373518806,560,55.81143740340031,560C52.67709943328182,560,49.4922076249356,560,46.40842349304482,560C43.32463936115404,560,40.39251674394642,560,37.30873261205564,560C34.22494848016486,560,30.989502833590933,560,27.905718701700156,560C24.82193456980938,560,21.88981195260175,560,18.806027820710973,560C15.722243688820196,560,12.537351880473981,560,9.403013910355487,560C6.268675940236991,560,0,560,0,560Z"><title>PlayStation 4</title></path><path fill="#d62728" d="M0,560C0,560,6.268675940236991,560,9.403013910355487,560C12.537351880473981,560,15.722243688820196,560,18.806027820710973,560C21.88981195260175,560,24.82193456980938,560,27.905718701700156,560C30.989502833590933,560,34.22494848016486,560,37.30873261205564,560C40.39251674394642,560,43.32463936115404,560,46.40842349304482,560C49.4922076249356,560,52.67709943328182,560,55.81143740340031,560C58.945775373518806,560,62.18122102009274,560.4666666666667,65.2144513137558,560C68.24768160741885,559.5333333333333,70.9775888717156,563.4222222222222,74.01081916537866,557.2C77.04404945904173,550.9777777777779,80.33004894384338,540.0888888888888,83.41383307573416,522.6666666666666C86.49761720762494,505.2444444444444,89.42973982483255,455.31111111111113,92.51352395672333,452.6666666666667C95.59730808861411,450.02222222222224,98.83275373518804,489.74074074074076,101.91653786707882,506.8C105.0003219989696,523.8592592592593,107.93244461617722,570.0592592592593,111.016228748068,555.0222222222222C114.10001287995878,539.9851851851852,117.28490468830499,418.28888888888883,120.41924265842349,416.5777777777777C123.55358062854198,414.8666666666666,126.7384724368882,522.1481481481482,129.82225656877898,544.7555555555556C132.90604070066976,567.362962962963,135.8381633178774,549.8370370370371,138.92194744976817,552.2222222222223C142.00573158165895,554.6074074074074,145.24117722823286,557.7703703703703,148.32496136012364,559.0666666666666C151.40874549201442,560.3629629629629,154.34086810922204,559.8444444444444,157.42465224111282,560C160.5084363730036,560.1555555555556,163.6933281813498,564.4592592592593,166.82766615146832,560C169.96200412158683,555.5407407407407,173.24800360638847,534.437037037037,176.23068006182382,533.2444444444444C179.21335651725917,532.0518518518518,181.74104842864506,557.0962962962963,184.72372488408038,552.8444444444444C187.7064013395157,548.5925925925926,191.04295466254507,509.18518518518516,194.12673879443585,507.7333333333333C197.21052292632663,506.2814814814814,200.14264554353426,550.562962962963,203.22642967542504,544.1333333333333C206.31021380731582,537.7037037037037,209.54565945388975,466.51111111111106,212.62944358578054,469.1555555555555C215.71322771767132,471.79999999999995,218.6453503348789,544.8592592592593,221.7291344667697,560C224.81291859866047,575.1407407407407,227.99781040700665,560,231.13214837712516,560C234.26648634724367,560,237.4513781555899,560,240.5351622874807,560C243.61894641937147,560,246.5510690365791,562.4888888888888,249.63485316846987,560C252.71863730036065,557.5111111111112,255.95408294693456,546.0518518518519,259.03786707882534,545.0666666666667C262.1216512107161,544.0814814814815,265.0537738279237,551.5999999999999,268.1375579598145,554.0888888888888C271.2213420917053,556.5777777777778,274.4062339000515,559.0148148148148,277.54057187017,560C280.67490984028854,560.9851851851852,283.96090932509014,560,286.9435857805255,560C289.92626223596085,560,292.45395414734674,560,295.4366306027821,560C298.41930705821744,560,301.7558603812468,560,304.83964451313756,560C307.9234286450283,560,310.85555126223596,560,313.9393353941267,560C317.02311952601747,560,320.2585651725914,560,323.3423493044822,560C326.426133436373,560,329.3582560535806,560,332.4420401854714,560C335.5258243173622,560,338.7107161257084,560,341.8450540958269,560C344.97939206594543,560,348.16428387429164,560,351.2480680061824,560C354.33185213807315,560,357.2639747552808,560,360.34775888717155,560C363.4315430190623,560,366.66698866563627,560,369.750772797527,560C372.8345569294178,560,375.7666795466255,560,378.85046367851623,560C381.934247810407,560,385.1191396187532,567.674074074074,388.2534775888717,560C391.3878155589902,552.325925925926,394.6738150437919,513.9555555555555,397.65649149922723,513.9555555555555C400.6391679546626,513.9555555555555,403.1668598660484,552.325925925926,406.14953632148377,560C409.1322127769191,567.674074074074,412.46876609994854,560,415.5525502318393,560C418.63633436373004,560,421.56845698093764,560,424.6522411128284,560C427.73602524471914,560,430.9714708912931,560,434.0552550231839,560C437.1390391550747,560,440.0711617722824,560.2074074074073,443.15494590417313,560C446.2387300360639,559.7925925925927,449.4236218444101,559.2740740740741,452.5579598145286,558.7555555555556C455.6922977846471,558.2370370370371,458.8771895929934,556.6814814814816,461.9609737248841,556.8888888888889C465.0447578567749,557.0962962962963,467.9768804739825,559.4814814814815,471.0606646058732,560C474.144448737764,560.5185185185185,477.37989438433794,560,480.46367851622875,560C483.54746264811956,560,486.4795852653272,560,489.56336939721797,560C492.6471535291087,560,495.8320453374549,562.9037037037037,498.9663833075734,560C502.1007212776919,557.0962962962963,505.33616692426585,542.6296296296297,508.3693972179289,542.5777777777778C511.40262751159196,542.5259259259259,514.1325347758888,556.7851851851851,517.1657650695519,559.6888888888889C520.198995363215,562.5925925925926,523.4849948480165,559.9481481481481,526.5687789799073,560C529.652563111798,560.0518518518519,532.5846857290057,560,535.6684698608965,560C538.7522539927872,560,541.9876996393612,560,545.0714837712519,560C548.1552679031427,560,551.0873905203504,560.0518518518519,554.1711746522411,560C557.2549587841319,559.9481481481481,560.4398505924781,559.7407407407408,563.5741885625966,559.6888888888889C566.7085265327152,559.637037037037,569.8934183410613,559.637037037037,572.9772024729521,559.6888888888889C576.0609866048428,559.7407407407408,578.9931092220505,559.9481481481481,582.0768933539413,560C585.160677485832,560.0518518518519,588.3961231324059,560,591.4799072642967,560C594.5636913961874,560,597.4958140133951,568.2962962962963,600.5795981452859,560C603.6633822771767,551.7037037037037,606.8482740855229,543.6148148148148,609.9826120556414,510.22222222222223C613.1169500257599,476.8296296296296,616.4029495105615,361.77037037037036,619.3856259659968,359.64444444444445C622.3683024214322,357.51851851851853,624.8959943328181,471.85185185185185,627.8786707882534,497.46666666666664C630.8613472436888,523.0814814814814,634.1979005667182,508.45925925925917,637.281684698609,513.3333333333333C640.3654688304997,518.2074074074073,643.2975914477074,520.7481481481482,646.3813755795982,526.7111111111111C649.4651597114889,532.674074074074,652.7006053580628,544.1333333333333,655.7843894899536,549.1111111111111C658.8681736218443,554.0888888888888,661.800296239052,558.5481481481481,664.8840803709428,556.5777777777778C667.9678645028335,554.6074074074074,671.1527563111798,536.7185185185185,674.2870942812983,537.2888888888889C677.4214322514168,537.8592592592593,680.6063240597631,560.3111111111111,683.6901081916538,560C686.7738923235446,559.6888888888889,689.7060149407522,535.4222222222222,692.789799072643,535.4222222222222C695.8735832045337,535.4222222222222,699.1090288511077,555.9037037037037,702.1928129829985,560C705.2765971148892,564.0962962962963,708.2087197320969,560,711.2925038639877,560C714.3762879958784,560,717.5611798042246,560,720.6955177743431,560C723.8298557444616,560,727.1158552292633,560,730.0985316846986,560C733.081208140134,560,735.6089000515199,566.1703703703704,738.5915765069552,560C741.5742529623906,553.8296296296296,744.9108062854199,523.3925925925926,747.9945904173106,522.9777777777778C751.0783745492014,522.562962962963,754.0104971664091,552.3777777777777,757.0942812982998,557.5111111111111C760.1780654301906,562.6444444444444,763.4135110767646,553.5703703703704,766.4972952086554,553.7777777777778C769.5810793405461,553.9851851851853,772.5132019577537,559.5333333333334,775.5969860896445,558.7555555555556C778.6807702215352,557.9777777777778,785,549.1111111111111,785,549.1111111111111L785,549.1111111111111C785,549.1111111111111,778.6807702215352,557.9777777777778,775.5969860896445,558.7555555555556C772.5132019577537,559.5333333333334,769.5810793405461,553.9851851851853,766.4972952086554,553.7777777777778C763.4135110767646,553.5703703703704,760.1780654301906,562.6444444444444,757.0942812982998,557.5111111111111C754.0104971664091,552.3777777777777,751.0783745492014,522.562962962963,747.9945904173106,522.9777777777778C744.9108062854199,523.3925925925926,741.5742529623906,553.8296296296296,738.5915765069552,560C735.6089000515199,566.1703703703704,733.081208140134,560,730.0985316846986,560C727.1158552292633,560,723.8298557444616,560,720.6955177743431,560C717.5611798042246,560,714.3762879958784,560,711.2925038639877,560C708.2087197320969,560,705.2765971148892,564.0962962962963,702.1928129829985,560C699.1090288511077,555.9037037037037,695.8735832045337,535.4222222222222,692.789799072643,535.4222222222222C689.7060149407522,535.4222222222222,686.7738923235446,559.6888888888889,683.6901081916538,560C680.6063240597631,560.3111111111111,677.4214322514168,537.8592592592593,674.2870942812983,537.2888888888889C671.1527563111798,536.7185185185185,667.9678645028335,554.6074074074074,664.8840803709428,556.5777777777778C661.800296239052,558.5481481481481,658.8681736218443,554.0888888888888,655.7843894899536,549.1111111111111C652.7006053580628,544.1333333333333,649.4651597114889,532.674074074074,646.3813755795982,526.7111111111111C643.2975914477074,520.7481481481482,640.3654688304997,518.2074074074073,637.281684698609,513.3333333333333C634.1979005667182,508.45925925925917,630.8613472436888,523.0814814814814,627.8786707882534,497.46666666666664C624.8959943328181,471.85185185185185,622.3683024214322,357.51851851851853,619.3856259659968,359.64444444444445C616.4029495105615,361.77037037037036,613.1169500257599,476.8296296296296,609.9826120556414,510.22222222222223C606.8482740855229,543.6148148148148,603.6633822771767,551.7037037037037,600.5795981452859,560C597.4958140133951,568.2962962962963,594.5636913961874,560,591.4799072642967,560C588.3961231324059,560,585.160677485832,560.0518518518519,582.0768933539413,560C578.9931092220505,559.9481481481481,576.0609866048428,559.7407407407408,572.9772024729521,559.6888888888889C569.8934183410613,559.637037037037,566.7085265327152,559.637037037037,563.5741885625966,559.6888888888889C560.4398505924781,559.7407407407408,557.2549587841319,559.9481481481481,554.1711746522411,560C551.0873905203504,560.0518518518519,548.1552679031427,560,545.0714837712519,560C541.9876996393612,560,538.7522539927872,560,535.6684698608965,560C532.5846857290057,560,529.652563111798,560.0518518518519,526.5687789799073,560C523.4849948480165,559.9481481481481,520.198995363215,562.5925925925926,517.1657650695519,559.6888888888889C514.1325347758888,556.7851851851851,511.40262751159196,542.5259259259259,508.3693972179289,542.5777777777778C505.33616692426585,542.6296296296297,502.1007212776919,557.0962962962963,498.9663833075734,560C495.8320453374549,562.9037037037037,492.6471535291087,560,489.56336939721797,560C486.4795852653272,560,483.54746264811956,560,480.46367851622875,560C477.37989438433794,560,474.144448737764,560.5185185185185,471.0606646058732,560C467.9768804739825,559.4814814814815,465.0447578567749,557.0962962962963,461.9609737248841,556.8888888888889C458.8771895929934,556.6814814814816,455.6922977846471,558.2370370370371,452.5579598145286,558.7555555555556C449.4236218444101,559.2740740740741,446.2387300360639,559.7925925925927,443.15494590417313,560C440.0711617722824,560.2074074074073,437.1390391550747,560,434.0552550231839,560C430.9714708912931,560,427.73602524471914,560,424.6522411128284,560C421.56845698093764,560,418.63633436373004,560,415.5525502318393,560C412.46876609994854,560,409.1322127769191,567.674074074074,406.14953632148377,560C403.1668598660484,552.325925925926,400.6391679546626,513.9555555555555,397.65649149922723,513.9555555555555C394.6738150437919,513.9555555555555,391.3878155589902,552.325925925926,388.2534775888717,560C385.1191396187532,567.674074074074,381.934247810407,560,378.85046367851623,560C375.7666795466255,560,372.8345569294178,560,369.750772797527,560C366.66698866563627,560,363.4315430190623,560,360.34775888717155,560C357.2639747552808,560,354.33185213807315,560,351.2480680061824,560C348.16428387429164,560,344.97939206594543,560,341.8450540958269,560C338.7107161257084,560,335.5258243173622,560,332.4420401854714,560C329.3582560535806,560,326.426133436373,560,323.3423493044822,560C320.2585651725914,560,317.02311952601747,560,313.9393353941267,560C310.85555126223596,560,307.9234286450283,560,304.83964451313756,560C301.7558603812468,560,298.41930705821744,560,295.4366306027821,560C292.45395414734674,560,289.92626223596085,560,286.9435857805255,560C283.96090932509014,560,280.67490984028854,560,277.54057187017,560C274.4062339000515,560,271.2213420917053,562.0740740740741,268.1375579598145,560C265.0537738279237,557.9259259259259,262.1216512107161,547.5555555555555,259.03786707882534,547.5555555555555C255.95408294693456,547.5555555555555,252.71863730036065,557.9259259259259,249.63485316846987,560C246.5510690365791,562.0740740740741,243.61894641937147,560,240.5351622874807,560C237.4513781555899,560,234.26648634724367,560,231.13214837712516,560C227.99781040700665,560,224.81291859866047,560.8814814814815,221.7291344667697,560C218.6453503348789,559.1185185185185,215.71322771767132,556.3703703703703,212.62944358578054,554.7111111111111C209.54565945388975,553.0518518518519,206.31021380731582,557.8740740740741,203.22642967542504,550.0444444444445C200.14264554353426,542.2148148148149,197.21052292632663,507.26666666666665,194.12673879443585,507.7333333333333C191.04295466254507,508.19999999999993,187.7064013395157,548.5925925925926,184.72372488408038,552.8444444444444C181.74104842864506,557.0962962962963,179.21335651725917,532.0518518518518,176.23068006182382,533.2444444444444C173.24800360638847,534.437037037037,169.96200412158683,555.5407407407407,166.82766615146832,560C163.6933281813498,564.4592592592593,160.5084363730036,560.1555555555556,157.42465224111282,560C154.34086810922204,559.8444444444444,151.40874549201442,560.3629629629629,148.32496136012364,559.0666666666666C145.24117722823286,557.7703703703703,142.00573158165895,554.6074074074074,138.92194744976817,552.2222222222223C135.8381633178774,549.8370370370371,132.90604070066976,567.362962962963,129.82225656877898,544.7555555555556C126.7384724368882,522.1481481481482,123.55358062854198,414.8666666666666,120.41924265842349,416.5777777777777C117.28490468830499,418.28888888888883,114.10001287995878,539.9851851851852,111.016228748068,555.0222222222222C107.93244461617722,570.0592592592593,105.0003219989696,523.8592592592593,101.91653786707882,506.8C98.83275373518804,489.74074074074076,95.59730808861411,450.02222222222224,92.51352395672333,452.6666666666667C89.42973982483255,455.31111111111113,86.49761720762494,505.2444444444444,83.41383307573416,522.6666666666666C80.33004894384338,540.0888888888888,77.04404945904173,550.9777777777779,74.01081916537866,557.2C70.9775888717156,563.4222222222222,68.24768160741885,559.5333333333333,65.2144513137558,560C62.18122102009274,560.4666666666667,58.945775373518806,560,55.81143740340031,560C52.67709943328182,560,49.4922076249356,560,46.40842349304482,560C43.32463936115404,560,40.39251674394642,560,37.30873261205564,560C34.22494848016486,560,30.989502833590933,560,27.905718701700156,560C24.82193456980938,560,21.88981195260175,560,18.806027820710973,560C15.722243688820196,560,12.537351880473981,560,9.403013910355487,560C6.268675940236991,560,0,560,0,560Z"><title>PlayStation 5</title></path><path fill="#9467bd" d="M0,525.4666666666667C0,525.4666666666667,6.268675940236991,513.9037037037037,9.403013910355487,515.5111111111112C12.537351880473981,517.1185185185186,15.722243688820196,530.6518518518518,18.806027820710973,535.1111111111111C21.88981195260175,539.5703703703704,24.82193456980938,541.3851851851852,27.905718701700156,542.2666666666667C30.989502833590933,543.1481481481482,34.22494848016486,542.7851851851851,37.30873261205564,540.4C40.39251674394642,538.0148148148148,43.32463936115404,533.8148148148149,46.40842349304482,527.9555555555556C49.4922076249356,522.0962962962964,52.67709943328182,502.6,55.81143740340031,505.24444444444447C58.945775373518806,507.8888888888889,62.18122102009274,544.4444444444445,65.2144513137558,543.8222222222222C68.24768160741885,543.1999999999999,70.9775888717156,510.74074074074076,74.01081916537866,501.5111111111111C77.04404945904173,492.2814814814815,80.33004894384338,499.9555555555556,83.41383307573416,488.44444444444446C86.49761720762494,476.93333333333334,89.42973982483255,448.8814814814815,92.51352395672333,432.44444444444446C95.59730808861411,416.0074074074074,98.83275373518804,399.41481481481486,101.91653786707882,389.82222222222225C105.0003219989696,380.22962962962964,107.93244461617722,387.07407407407413,111.016228748068,374.8888888888889C114.10001287995878,362.7037037037037,117.28490468830499,311.1111111111111,120.41924265842349,316.7111111111111C123.55358062854198,322.31111111111113,126.7384724368882,385.51851851851853,129.82225656877898,408.4888888888889C132.90604070066976,431.4592592592592,135.8381633178774,434.62222222222215,138.92194744976817,454.5333333333333C142.00573158165895,474.44444444444446,145.24117722823286,517.9481481481482,148.32496136012364,527.9555555555556C151.40874549201442,537.962962962963,154.34086810922204,518.8814814814815,157.42465224111282,514.5777777777778C160.5084363730036,510.27407407407406,163.6933281813498,513.5925925925926,166.82766615146832,502.1333333333334C169.96200412158683,490.6740740740741,173.24800360638847,447.2222222222222,176.23068006182382,445.8222222222222C179.21335651725917,444.4222222222222,181.74104842864506,497.0518518518519,184.72372488408038,493.73333333333335C187.7064013395157,490.4148148148148,191.04295466254507,425.65185185185186,194.12673879443585,425.9111111111111C197.21052292632663,426.17037037037034,200.14264554353426,509.7037037037037,203.22642967542504,495.2888888888889C206.31021380731582,480.8740740740741,209.54565945388975,345.59259259259255,212.62944358578054,339.42222222222216C215.71322771767132,333.25185185185177,218.6453503348789,435.2962962962963,221.7291344667697,458.26666666666665C224.81291859866047,481.237037037037,227.99781040700665,474.7037037037037,231.13214837712516,477.2444444444444C234.26648634724367,479.7851851851851,237.4513781555899,471.5407407407407,240.5351622874807,473.5111111111111C243.61894641937147,475.4814814814815,246.5510690365791,497.4666666666667,249.63485316846987,489.06666666666666C252.71863730036065,480.66666666666663,255.95408294693456,437.26666666666665,259.03786707882534,423.1111111111111C262.1216512107161,408.9555555555555,265.0537738279237,393.55555555555554,268.1375579598145,404.1333333333333C271.2213420917053,414.7111111111111,274.4062339000515,470.08888888888885,277.54057187017,486.5777777777777C280.67490984028854,503.0666666666666,283.96090932509014,521.2666666666667,286.9435857805255,503.06666666666666C289.92626223596085,484.8666666666667,292.45395414734674,406.36296296296297,295.4366306027821,377.3777777777778C298.41930705821744,348.3925925925926,301.7558603812468,333.71851851851847,304.83964451313756,329.1555555555555C307.9234286450283,324.59259259259255,310.85555126223596,329.31111111111113,313.9393353941267,350C317.02311952601747,370.68888888888887,320.2585651725914,443.2814814814815,323.3423493044822,453.2888888888889C326.426133436373,463.2962962962963,329.3582560535806,422.38518518518515,332.4420401854714,410.0444444444444C335.5258243173622,397.7037037037037,338.7107161257084,384.9481481481481,341.8450540958269,379.2444444444444C344.97939206594543,373.5407407407407,348.16428387429164,380.9037037037037,351.2480680061824,375.8222222222222C354.33185213807315,370.7407407407407,357.2639747552808,343.20740740740735,360.34775888717155,348.75555555555553C363.4315430190623,354.3037037037037,366.66698866563627,420.7777777777778,369.750772797527,409.11111111111114C372.8345569294178,397.44444444444446,375.7666795466255,293.9481481481481,378.85046367851623,278.75555555555553C381.934247810407,263.56296296296296,385.1191396187532,308.3629629629629,388.2534775888717,317.9555555555555C391.3878155589902,327.54814814814813,394.6738150437919,333.8222222222222,397.65649149922723,336.3111111111111C400.6391679546626,338.79999999999995,403.1668598660484,313.7555555555556,406.14953632148377,332.8888888888889C409.1322127769191,352.02222222222224,412.46876609994854,452.3037037037037,415.5525502318393,451.11111111111114C418.63633436373004,449.91851851851857,421.56845698093764,327.7037037037037,424.6522411128284,325.73333333333335C427.73602524471914,323.762962962963,430.9714708912931,423.9925925925926,434.0552550231839,439.2888888888889C437.1390391550747,454.5851851851852,440.0711617722824,434.8296296296296,443.15494590417313,417.5111111111111C446.2387300360639,400.19259259259263,449.4236218444101,370.6888888888889,452.5579598145286,335.3777777777778C455.6922977846471,300.06666666666666,458.8771895929934,198.6962962962963,461.9609737248841,205.64444444444445C465.0447578567749,212.59259259259258,467.9768804739825,349.5333333333333,471.0606646058732,377.06666666666666C474.144448737764,404.6,477.37989438433794,381.0592592592593,480.46367851622875,370.8444444444445C483.54746264811956,360.6296296296297,486.4795852653272,308.93333333333334,489.56336939721797,315.77777777777777C492.6471535291087,322.6222222222222,495.8320453374549,432.7037037037037,498.9663833075734,411.9111111111111C502.1007212776919,391.1185185185185,505.33616692426585,240.43703703703704,508.3693972179289,191.02222222222224C511.40262751159196,141.60740740740744,514.1325347758888,125.74074074074076,517.1657650695519,115.42222222222223C520.198995363215,105.1037037037037,523.4849948480165,117.44444444444441,526.5687789799073,129.1111111111111C529.652563111798,140.77777777777774,532.5846857290057,166.65185185185186,535.6684698608965,185.42222222222225C538.7522539927872,204.19259259259263,541.9876996393612,222.54814814814813,545.0714837712519,241.73333333333332C548.1552679031427,260.9185185185185,551.0873905203504,291.66666666666663,554.1711746522411,300.5333333333333C557.2549587841319,309.4,560.4398505924781,288.91851851851845,563.5741885625966,294.9333333333333C566.7085265327152,300.9481481481481,569.8934183410613,331.90370370370374,572.9772024729521,336.62222222222226C576.0609866048428,341.3407407407408,578.9931092220505,314.8962962962963,582.0768933539413,323.24444444444447C585.160677485832,331.5925925925926,588.3961231324059,387.33333333333337,591.4799072642967,386.7111111111111C594.5636913961874,386.08888888888885,597.4958140133951,348.96296296296293,600.5795981452859,319.51111111111106C603.6633822771767,290.0592592592592,606.8482740855229,253.86666666666667,609.9826120556414,210C613.1169500257599,166.13333333333333,616.4029495105615,56.985185185185166,619.3856259659968,56.31111111111109C622.3683024214322,55.63703703703701,624.8959943328181,168.25925925925924,627.8786707882534,205.95555555555555C630.8613472436888,243.65185185185186,634.1979005667182,287.6222222222222,637.281684698609,282.4888888888889C640.3654688304997,277.35555555555555,643.2975914477074,177.95555555555558,646.3813755795982,175.15555555555557C649.4651597114889,172.35555555555555,652.7006053580628,254.33333333333331,655.7843894899536,265.68888888888887C658.8681736218443,277.0444444444444,661.800296239052,243.1333333333333,664.8840803709428,243.28888888888886C667.9678645028335,243.44444444444443,671.1527563111798,266.41481481481486,674.2870942812983,266.62222222222226C677.4214322514168,266.82962962962966,680.6063240597631,242.8740740740741,683.6901081916538,244.53333333333333C686.7738923235446,246.19259259259258,689.7060149407522,271.1333333333333,692.789799072643,276.5777777777778C695.8735832045337,282.02222222222224,699.1090288511077,290.73333333333335,702.1928129829985,277.2C705.2765971148892,263.66666666666663,708.2087197320969,205.95555555555558,711.2925038639877,195.3777777777778C714.3762879958784,184.8,717.5611798042246,203.15555555555557,720.6955177743431,213.73333333333335C723.8298557444616,224.31111111111113,727.1158552292633,257.4962962962963,730.0985316846986,258.84444444444443C733.081208140134,260.1925925925926,735.6089000515199,230.06666666666663,738.5915765069552,221.8222222222222C741.5742529623906,213.57777777777775,744.9108062854199,197.5037037037037,747.9945904173106,209.3777777777778C751.0783745492014,221.25185185185188,754.0104971664091,260.4,757.0942812982998,293.06666666666666C760.1780654301906,325.73333333333335,763.4135110767646,392.77777777777777,766.4972952086554,405.3777777777778C769.5810793405461,417.9777777777778,772.5132019577537,367.8370370370371,775.5969860896445,368.6666666666667C778.6807702215352,369.4962962962963,785,410.35555555555555,785,410.35555555555555L785,549.1111111111111C785,549.1111111111111,778.6807702215352,557.9777777777778,775.5969860896445,558.7555555555556C772.5132019577537,559.5333333333334,769.5810793405461,553.9851851851853,766.4972952086554,553.7777777777778C763.4135110767646,553.5703703703704,760.1780654301906,562.6444444444444,757.0942812982998,557.5111111111111C754.0104971664091,552.3777777777777,751.0783745492014,522.562962962963,747.9945904173106,522.9777777777778C744.9108062854199,523.3925925925926,741.5742529623906,553.8296296296296,738.5915765069552,560C735.6089000515199,566.1703703703704,733.081208140134,560,730.0985316846986,560C727.1158552292633,560,723.8298557444616,560,720.6955177743431,560C717.5611798042246,560,714.3762879958784,560,711.2925038639877,560C708.2087197320969,560,705.2765971148892,564.0962962962963,702.1928129829985,560C699.1090288511077,555.9037037037037,695.8735832045337,535.4222222222222,692.789799072643,535.4222222222222C689.7060149407522,535.4222222222222,686.7738923235446,559.6888888888889,683.6901081916538,560C680.6063240597631,560.3111111111111,677.4214322514168,537.8592592592593,674.2870942812983,537.2888888888889C671.1527563111798,536.7185185185185,667.9678645028335,554.6074074074074,664.8840803709428,556.5777777777778C661.800296239052,558.5481481481481,658.8681736218443,554.0888888888888,655.7843894899536,549.1111111111111C652.7006053580628,544.1333333333333,649.4651597114889,532.674074074074,646.3813755795982,526.7111111111111C643.2975914477074,520.7481481481482,640.3654688304997,518.2074074074073,637.281684698609,513.3333333333333C634.1979005667182,508.45925925925917,630.8613472436888,523.0814814814814,627.8786707882534,497.46666666666664C624.8959943328181,471.85185185185185,622.3683024214322,357.51851851851853,619.3856259659968,359.64444444444445C616.4029495105615,361.77037037037036,613.1169500257599,476.8296296296296,609.9826120556414,510.22222222222223C606.8482740855229,543.6148148148148,603.6633822771767,551.7037037037037,600.5795981452859,560C597.4958140133951,568.2962962962963,594.5636913961874,560,591.4799072642967,560C588.3961231324059,560,585.160677485832,560.0518518518519,582.0768933539413,560C578.9931092220505,559.9481481481481,576.0609866048428,559.7407407407408,572.9772024729521,559.6888888888889C569.8934183410613,559.637037037037,566.7085265327152,559.637037037037,563.5741885625966,559.6888888888889C560.4398505924781,559.7407407407408,557.2549587841319,559.9481481481481,554.1711746522411,560C551.0873905203504,560.0518518518519,548.1552679031427,560,545.0714837712519,560C541.9876996393612,560,538.7522539927872,560,535.6684698608965,560C532.5846857290057,560,529.652563111798,560.0518518518519,526.5687789799073,560C523.4849948480165,559.9481481481481,520.198995363215,562.5925925925926,517.1657650695519,559.6888888888889C514.1325347758888,556.7851851851851,511.40262751159196,542.5259259259259,508.3693972179289,542.5777777777778C505.33616692426585,542.6296296296297,502.1007212776919,557.0962962962963,498.9663833075734,560C495.8320453374549,562.9037037037037,492.6471535291087,560,489.56336939721797,560C486.4795852653272,560,483.54746264811956,560,480.46367851622875,560C477.37989438433794,560,474.144448737764,560.5185185185185,471.0606646058732,560C467.9768804739825,559.4814814814815,465.0447578567749,557.0962962962963,461.9609737248841,556.8888888888889C458.8771895929934,556.6814814814816,455.6922977846471,558.2370370370371,452.5579598145286,558.7555555555556C449.4236218444101,559.2740740740741,446.2387300360639,559.7925925925927,443.15494590417313,560C440.0711617722824,560.2074074074073,437.1390391550747,560,434.0552550231839,560C430.9714708912931,560,427.73602524471914,560,424.6522411128284,560C421.56845698093764,560,418.63633436373004,560,415.5525502318393,560C412.46876609994854,560,409.1322127769191,567.674074074074,406.14953632148377,560C403.1668598660484,552.325925925926,400.6391679546626,513.9555555555555,397.65649149922723,513.9555555555555C394.6738150437919,513.9555555555555,391.3878155589902,552.325925925926,388.2534775888717,560C385.1191396187532,567.674074074074,381.934247810407,560,378.85046367851623,560C375.7666795466255,560,372.8345569294178,560,369.750772797527,560C366.66698866563627,560,363.4315430190623,560,360.34775888717155,560C357.2639747552808,560,354.33185213807315,560,351.2480680061824,560C348.16428387429164,560,344.97939206594543,560,341.8450540958269,560C338.7107161257084,560,335.5258243173622,560,332.4420401854714,560C329.3582560535806,560,326.426133436373,560,323.3423493044822,560C320.2585651725914,560,317.02311952601747,560,313.9393353941267,560C310.85555126223596,560,307.9234286450283,560,304.83964451313756,560C301.7558603812468,560,298.41930705821744,560,295.4366306027821,560C292.45395414734674,560,289.92626223596085,560,286.9435857805255,560C283.96090932509014,560,280.67490984028854,560.9851851851852,277.54057187017,560C274.4062339000515,559.0148148148148,271.2213420917053,556.5777777777778,268.1375579598145,554.0888888888888C265.0537738279237,551.5999999999999,262.1216512107161,544.0814814814815,259.03786707882534,545.0666666666667C255.95408294693456,546.0518518518519,252.71863730036065,557.5111111111112,249.63485316846987,560C246.5510690365791,562.4888888888888,243.61894641937147,560,240.5351622874807,560C237.4513781555899,560,234.26648634724367,560,231.13214837712516,560C227.99781040700665,560,224.81291859866047,575.1407407407407,221.7291344667697,560C218.6453503348789,544.8592592592593,215.71322771767132,471.79999999999995,212.62944358578054,469.1555555555555C209.54565945388975,466.51111111111106,206.31021380731582,537.7037037037037,203.22642967542504,544.1333333333333C200.14264554353426,550.562962962963,197.21052292632663,506.2814814814814,194.12673879443585,507.7333333333333C191.04295466254507,509.18518518518516,187.7064013395157,548.5925925925926,184.72372488408038,552.8444444444444C181.74104842864506,557.0962962962963,179.21335651725917,532.0518518518518,176.23068006182382,533.2444444444444C173.24800360638847,534.437037037037,169.96200412158683,555.5407407407407,166.82766615146832,560C163.6933281813498,564.4592592592593,160.5084363730036,560.1555555555556,157.42465224111282,560C154.34086810922204,559.8444444444444,151.40874549201442,560.3629629629629,148.32496136012364,559.0666666666666C145.24117722823286,557.7703703703703,142.00573158165895,554.6074074074074,138.92194744976817,552.2222222222223C135.8381633178774,549.8370370370371,132.90604070066976,567.362962962963,129.82225656877898,544.7555555555556C126.7384724368882,522.1481481481482,123.55358062854198,414.8666666666666,120.41924265842349,416.5777777777777C117.28490468830499,418.28888888888883,114.10001287995878,539.9851851851852,111.016228748068,555.0222222222222C107.93244461617722,570.0592592592593,105.0003219989696,523.8592592592593,101.91653786707882,506.8C98.83275373518804,489.74074074074076,95.59730808861411,450.02222222222224,92.51352395672333,452.6666666666667C89.42973982483255,455.31111111111113,86.49761720762494,505.2444444444444,83.41383307573416,522.6666666666666C80.33004894384338,540.0888888888888,77.04404945904173,550.9777777777779,74.01081916537866,557.2C70.9775888717156,563.4222222222222,68.24768160741885,559.5333333333333,65.2144513137558,560C62.18122102009274,560.4666666666667,58.945775373518806,560,55.81143740340031,560C52.67709943328182,560,49.4922076249356,560,46.40842349304482,560C43.32463936115404,560,40.39251674394642,560,37.30873261205564,560C34.22494848016486,560,30.989502833590933,560,27.905718701700156,560C24.82193456980938,560,21.88981195260175,560,18.806027820710973,560C15.722243688820196,560,12.537351880473981,560,9.403013910355487,560C6.268675940236991,560,0,560,0,560Z"><title>iPhone</title></path></g><g id="xAxis" transform="translate(0,560)" fill="none" font-size="10" font-family="sans-serif" text-anchor="middle"><path class="domain" stroke="currentColor" d="M0,0H785"/><g class="tick" opacity="1" transform="translate(55.81143740340031,0)"><line stroke="currentColor" y2="6"/><text fill="currentColor" y="9" dy="0.71em">2020</text></g><g class="tick" opacity="1" transform="translate(166.82766615146832,0)"><line stroke="currentColor" y2="6"/><text fill="currentColor" y="9" dy="0.71em">2021</text></g><g class="tick" opacity="1" transform="translate(277.54057187017,0)"><line stroke="currentColor" y2="6"/><text fill="currentColor" y="9" dy="0.71em">2022</text></g><g class="tick" opacity="1" transform="translate(388.2534775888717,0)"><line stroke="currentColor" y2="6"/><text fill="currentColor" y="9" dy="0.71em">2023</text></g><g class="tick" opacity="1" transform="translate(498.9663833075734,0)"><line stroke="currentColor" y2="6"/><text fill="currentColor" y="9" dy="0.71em">2024</text></g><g class="tick" opacity="1" transform="translate(609.9826120556414,0)"><line stroke="currentColor" y2="6"/><text fill="currentColor" y="9" dy="0.71em">2025</text></g><g class="tick" opacity="1" transform="translate(720.6955177743431,0)"><line stroke="currentColor" y2="6"/><text fill="currentColor" y="9" dy="0.71em">2026</text></g></g><text y="556" x="785" text-anchor="end" style="font-family: Arial, sans-serif; font-size: 12px; fill: rgb(123, 123, 123); font-weight: bold;">Mes</text><text x="4" text-anchor="start" dominant-baseline="hanging" style="font-family: Arial, sans-serif; font-size: 12px; fill: rgb(123, 123, 123); font-weight: bold;">Reproducciones</text><g id="labels"><text x="619.3856259659968" y="459.82222222222225" text-anchor="middle" alignment-baseline="middle" style="font-family: Arial, sans-serif; font-size: 10px; fill: black; font-weight: bold;">App de Windows</text><text x="176.23068006182382" y="546.6222222222223" text-anchor="middle" alignment-baseline="middle" style="font-family: Arial, sans-serif; font-size: 10px; fill: black; font-weight: bold;">Navegador (Chrome)</text><text x="120.41924265842349" y="487.6666666666667" text-anchor="middle" alignment-baseline="middle" style="font-family: Arial, sans-serif; font-size: 10px; fill: black; font-weight: bold;">PlayStation 4</text><text x="212.62944358578054" y="511.93333333333334" text-anchor="middle" alignment-baseline="middle" style="font-family: Arial, sans-serif; font-size: 10px; fill: black; font-weight: bold;">PlayStation 5</text><text x="517.1657650695519" y="337.5555555555556" text-anchor="middle" alignment-baseline="middle" style="font-family: Arial, sans-serif; font-size: 10px; fill: black; font-weight: bold;">iPhone</text></g></g><text x="4" y="4" style="font-family: Arial, sans-serif; font-size: 12px; fill: black; font-weight: bold; dominant-baseline: hanging;"/></g></g></svg>